HIERARCHY
ROOT Hips
{
	OFFSET 50.911201 12.420585 96.020699
	CHANNELS 6 Xposition Yposition Zposition Xrotation Yrotation Zrotation
	JOINT spine
	{
		OFFSET 0.000000 -0.467661 8.132492
		CHANNELS 3 Xrotation Yrotation Zrotation
		JOINT spine1
		{
			OFFSET 0.000000 -0.000002 10.349800
			CHANNELS 3 Xrotation Yrotation Zrotation
			JOINT spine2
			{
				OFFSET 0.000000 -0.000001 9.916992
				CHANNELS 3 Xrotation Yrotation Zrotation
				JOINT Neck
				{
					OFFSET 0.000000 -1.213904 25.460999
					CHANNELS 3 Xrotation Yrotation Zrotation
					JOINT Head
					{
						OFFSET 0.000000 -0.000001 7.692444
						CHANNELS 3 Xrotation Yrotation Zrotation
						End Site
						{
							OFFSET 0.000000 6.140627 18.619995
						}
					}
				}
				JOINT RightShoulder
				{
					OFFSET -4.175751 0.581443 10.709595
					CHANNELS 3 Xrotation Yrotation Zrotation
					JOINT RightArm
					{
						OFFSET 0.000000 -0.000002 14.046600
						CHANNELS 3 Xrotation Yrotation Zrotation
						JOINT RightArmRoll
						{
							OFFSET 0.000000 -0.000002 7.090973
							CHANNELS 3 Xrotation Yrotation Zrotation
							JOINT RightForeArm
							{
								OFFSET 0.000000 -0.000003 20.653503
								CHANNELS 3 Xrotation Yrotation Zrotation
								JOINT RightForeArmRoll
								{
									OFFSET 0.000000 -0.000002 7.957184
									CHANNELS 3 Xrotation Yrotation Zrotation
									JOINT RightHand
									{
										OFFSET 0.000000 -0.000002 15.968292
										CHANNELS 3 Xrotation Yrotation Zrotation
										End Site
										{
											OFFSET 0.000000 0.000000 0.100006
										}
									}
								}
							}
						}
					}
				}
				JOINT LeftShoulder
				{
					OFFSET 4.175751 0.581443 10.709595
					CHANNELS 3 Xrotation Yrotation Zrotation
					JOINT LeftArm
					{
						OFFSET 0.000000 -0.000002 14.046600
						CHANNELS 3 Xrotation Yrotation Zrotation
						JOINT LeftArmRoll
						{
							OFFSET 0.000000 -0.000002 7.090988
							CHANNELS 3 Xrotation Yrotation Zrotation
							JOINT LeftForeArm
							{
								OFFSET 0.000000 -0.000003 20.653503
								CHANNELS 3 Xrotation Yrotation Zrotation
								JOINT LeftForeArmRoll
								{
									OFFSET 0.000000 -0.000002 7.957184
									CHANNELS 3 Xrotation Yrotation Zrotation
									JOINT LeftHand
									{
										OFFSET 0.000000 -0.000002 15.968307
										CHANNELS 3 Xrotation Yrotation Zrotation
										End Site
										{
											OFFSET 0.000000 0.000000 0.100006
										}
									}
								}
							}
						}
					}
				}
			}
		}
	}
	JOINT RightUpLeg
	{
		OFFSET -7.208340 1.108840 -1.321823
		CHANNELS 3 Xrotation Yrotation Zrotation
		JOINT RightUpLegRoll
		{
			OFFSET 0.000000 -0.000003 18.723801
			CHANNELS 3 Xrotation Yrotation Zrotation
			JOINT RightLeg
			{
				OFFSET 0.000000 0.000004 -23.186600
				CHANNELS 3 Xrotation Yrotation Zrotation
				JOINT RightLegRoll
				{
					OFFSET 0.000000 -0.000004 23.262398
					CHANNELS 3 Xrotation Yrotation Zrotation
					JOINT RightFoot
					{
						OFFSET 0.000000 -0.000004 19.362106
						CHANNELS 3 Xrotation Yrotation Zrotation
						JOINT RightToeBase
						{
							OFFSET 0.000000 -0.000002 16.185699
							CHANNELS 3 Xrotation Yrotation Zrotation
							End Site
							{
								OFFSET 0.006859 0.903521 7.838623
							}
						}
					}
				}
			}
		}
	}
	JOINT LeftUpLeg
	{
		OFFSET 7.208340 1.108840 -1.321823
		CHANNELS 3 Xrotation Yrotation Zrotation
		JOINT LeftUpLegRoll
		{
			OFFSET 0.000000 -0.000003 18.723900
			CHANNELS 3 Xrotation Yrotation Zrotation
			JOINT LeftLeg
			{
				OFFSET 0.000000 -0.000004 23.186508
				CHANNELS 3 Xrotation Yrotation Zrotation
				JOINT LeftLegRoll
				{
					OFFSET 0.000000 -0.000004 23.477509
					CHANNELS 3 Xrotation Yrotation Zrotation
					JOINT LeftFoot
					{
						OFFSET 0.000000 -0.000004 19.147003
						CHANNELS 3 Xrotation Yrotation Zrotation
						JOINT LeftToeBase
						{
							OFFSET 0.000000 -0.000002 16.185699
							CHANNELS 3 Xrotation Yrotation Zrotation
							End Site
							{
								OFFSET -0.030746 0.903521 7.838623
							}
						}
					}
				}
			}
		}
	}
}
MOTION
Frames: 13
Frame Time: 0.041667
48.055801 0.318122 104.778992 1.574751 1.541328 -0.578922 0.428684 -0.377534 0.007906 4.860402 -0.754622 0.028127 6.505547 -0.754234 0.037165 -14.034273 -3.343066 -4.350182 6.878821 2.893915 -3.977414 -17.108828 -47.356983 -20.082800 -32.507879 -115.400021 -81.644345 0.000002 0.000017 -0.000003 92.515759 3.898367 -8.585623 -0.000008 0.000004 -3.000486 -5.000185 -7.998716 0.000166 -12.747449 46.370458 14.500565 -33.201406 122.211905 84.830792 -0.000000 -0.000006 -0.000001 92.078217 -9.252356 10.053180 -0.000000 -0.000005 3.000001 -5.000203 7.998795 -0.000156 -10.896450 -176.391070 0.805175 -179.999991 0.000005 -0.926005 164.732265 -1.510749 -0.727329 0.000001 -0.000002 0.189989 68.836258 6.795181 2.398796 25.456945 -7.355622 0.000004 -8.726566 171.576223 -1.106592 -0.000004 -0.000005 -0.978177 -12.462257 1.057000 0.440179 -0.000001 -0.000003 -0.103606 67.851147 -6.816144 -2.405331 25.401098 7.355570 0.083118 
48.051800 0.271215 105.036003 1.530105 1.542910 -0.577987 0.429325 -0.367745 0.010417 4.861700 -0.734994 0.034563 6.506838 -0.734530 0.043365 -13.990126 -3.426932 -4.370530 6.933776 2.951603 -3.986004 -17.164195 -47.387562 -20.153465 -32.275827 -114.905475 -81.820701 0.000001 0.000017 -0.000003 92.857617 4.151968 -8.927610 -0.000008 0.000007 -3.000491 -5.000182 -7.998718 0.000167 -12.725095 46.340740 14.470656 -32.914115 121.665299 84.954166 -0.000001 -0.000007 0.000007 92.578331 -9.527084 10.472092 0.000002 -0.000004 3.000000 -5.000202 7.998794 -0.000160 -10.682679 -176.427843 0.793238 -179.999991 0.000005 -0.926005 164.953153 -1.495915 -0.715084 0.000000 -0.000002 0.186113 68.831095 6.794816 2.401944 25.456945 -7.355621 0.000004 -8.450538 171.554353 -1.137257 -0.000005 -0.000004 -0.977841 -12.033398 1.061545 0.425172 -0.000001 -0.000002 -0.094637 67.804196 -6.814858 -2.411181 25.401600 7.355567 0.082420 
48.035896 0.274386 105.324982 1.485251 1.545041 -0.577482 0.430135 -0.358450 0.012279 4.863330 -0.716365 0.039756 6.508471 -0.715840 0.048335 -13.938899 -3.498132 -4.386886 6.982820 2.998576 -3.992474 -17.212531 -47.407848 -20.214787 -32.021030 -114.421419 -81.972256 -0.000001 0.000018 -0.000006 93.189762 4.403302 -9.267654 -0.000007 0.000005 -3.000492 -5.000183 -7.998716 0.000166 -12.704820 46.314188 14.443530 -32.614249 121.115332 85.062500 -0.000001 -0.000007 0.000001 93.073424 -9.800273 10.895453 0.000002 -0.000004 2.999999 -5.000203 7.998792 -0.000158 -10.480652 -176.464836 0.784882 -179.999991 0.000005 -0.924994 165.139098 -1.483678 -0.702648 0.000001 -0.000003 0.182703 68.827891 6.794324 2.405249 25.456941 -7.355621 0.000005 -8.185199 171.532852 -1.172417 -0.000005 -0.000005 -0.977537 -11.632061 1.070283 0.410453 -0.000001 -0.000002 -0.086120 67.757457 -6.813535 -2.417309 25.404631 7.355573 0.077892 
48.067200 0.196216 105.573982 1.440573 1.547691 -0.577352 0.431050 -0.349742 0.013584 4.865163 -0.698917 0.043849 6.510295 -0.698344 0.052219 -13.880678 -3.556940 -4.399408 7.025873 3.035608 -3.997056 -17.253879 -47.417632 -20.266998 -31.742030 -113.946851 -82.097214 0.000001 0.000016 -0.000003 93.513343 4.652235 -9.607758 -0.000007 0.000002 -3.000491 -5.000182 -7.998715 0.000166 -12.686959 46.290555 14.419600 -32.299401 120.562743 85.154113 -0.000001 -0.000007 0.000005 93.562172 -10.071222 11.321477 0.000003 -0.000004 3.000001 -5.000203 7.998795 -0.000157 -10.289558 -176.502033 0.779349 -179.999991 0.000005 -0.924994 165.294922 -1.475069 -0.692072 0.000001 -0.000003 0.179714 68.826368 6.793838 2.408454 25.456948 -7.355622 0.000005 -7.930962 171.511774 -1.210740 -0.000005 -0.000004 -0.977279 -11.258137 1.082036 0.396063 -0.000001 -0.000002 -0.078083 67.711852 -6.812117 -2.423349 25.409682 7.355586 0.070337 
48.002399 0.183652 105.871994 1.396472 1.550860 -0.577544 0.431990 -0.341714 0.014422 4.867046 -0.682832 0.046984 6.512184 -0.682224 0.055160 -13.815960 -3.603599 -4.408299 7.062827 3.063512 -4.000036 -17.288607 -47.416768 -20.310563 -31.435328 -113.482507 -82.191764 0.000001 0.000016 -0.000006 93.829410 4.898861 -9.945872 -0.000007 0.000004 -3.000489 -5.000183 -7.998717 0.000165 -12.671823 46.269522 14.399246 -31.967389 120.008350 85.227387 -0.000002 -0.000006 0.000004 94.043597 -10.339441 11.749989 -0.000000 -0.000007 2.999999 -5.000201 7.998794 -0.000158 -10.108496 -176.540419 0.776071 -179.999991 0.000005 -0.924994 165.425406 -1.469178 -0.682951 0.000001 -0.000002 0.177103 68.826416 6.793310 2.411751 25.456948 -7.355613 -0.000001 -7.688259 171.492035 -1.251050 -0.000005 -0.000004 -0.977083 -10.911722 1.095651 0.382093 -0.000001 -0.000003 -0.070553 67.667825 -6.810685 -2.429387 25.416244 7.355598 0.060574 
48.028801 0.175621 106.109993 1.353317 1.554527 -0.578006 0.432889 -0.334454 0.014884 4.868832 -0.668296 0.049300 6.513964 -0.667660 0.057303 -13.744949 -3.638367 -4.413744 7.093583 3.083056 -4.001694 -17.317074 -47.405024 -20.345955 -31.100238 -113.026503 -82.254991 0.000001 0.000016 -0.000005 94.139179 5.143038 -10.283970 -0.000009 0.000002 -3.000488 -5.000182 -7.998714 0.000165 -12.659718 46.250858 14.382869 -31.614767 119.453820 85.279297 0.000001 -0.000006 -0.000001 94.516171 -10.604421 12.178338 -0.000000 -0.000006 3.000001 -5.000200 7.998795 -0.000159 -9.936464 -176.577985 0.773944 -179.999991 0.000005 -0.923997 165.535468 -1.465067 -0.673880 0.000000 -0.000003 0.174827 68.828035 6.792740 2.414743 25.456947 -7.355613 0.000000 -7.457520 171.472664 -1.291860 -0.000005 -0.000004 -0.976964 -10.592811 1.109961 0.368664 -0.000001 -0.000003 -0.063559 67.626133 -6.809318 -2.435092 25.423733 7.355612 0.049449 
48.030800 0.146252 106.373993 1.311515 1.558682 -0.578683 0.433667 -0.328057 0.015062 4.870379 -0.655490 0.050942 6.515518 -0.654834 0.058791 -13.667941 -3.661512 -4.415964 7.118040 3.095040 -4.002293 -17.339267 -47.381985 -20.373319 -30.732942 -112.579638 -82.282510 -0.000000 0.000016 -0.000005 94.443840 5.384656 -10.622073 -0.000005 0.000001 -3.000479 -5.000183 -7.998718 0.000168 -12.650979 46.234206 14.370858 -31.238024 118.900917 85.306857 0.000001 -0.000005 0.000002 94.978814 -10.865472 12.607799 0.000000 -0.000005 3.000000 -5.000202 7.998794 -0.000156 -9.772650 -176.615728 0.772385 -179.999991 0.000005 -0.923997 165.629833 -1.460844 -0.666224 0.000001 -0.000002 0.172841 68.830822 6.792212 2.417574 25.456948 -7.355613 0.000000 -7.239148 171.455630 -1.332128 -0.000004 -0.000005 -0.976937 -10.301202 1.123814 0.355925 -0.000001 -0.000003 -0.057128 67.587509 -6.808019 -2.440423 25.431605 7.355614 0.037765 
48.088196 0.153638 106.615997 1.271442 1.563315 -0.579523 0.434254 -0.322616 0.015045 4.871548 -0.644596 0.052051 6.516684 -0.643929 0.059769 -13.585247 -3.673291 -4.415163 7.136089 3.100247 -4.002145 -17.355758 -47.347551 -20.393331 -30.330838 -112.141912 -82.271596 0.000002 0.000016 -0.000005 94.744525 5.623527 -10.959150 -0.000009 0.000007 -3.000479 -5.000180 -7.998715 0.000165 -12.645928 46.219456 14.363654 -30.833468 118.351442 85.307034 0.000002 -0.000005 0.000000 95.430174 -11.122332 13.035115 -0.000000 -0.000007 2.999998 -5.000200 7.998796 -0.000157 -9.616126 -176.653581 0.770647 -179.999991 0.000005 -0.923997 165.713599 -1.456545 -0.657855 0.000000 -0.000002 0.171101 68.834769 6.791685 2.420033 25.456945 -7.355613 0.000000 -7.033592 171.439947 -1.370394 -0.000005 -0.000005 -0.977018 -10.036994 1.136048 0.344053 -0.000001 -0.000003 -0.051289 67.552572 -6.806789 -2.445337 25.439186 7.355619 0.026379 
48.064201 0.131655 106.884995 1.233490 1.568397 -0.580473 0.434581 -0.318220 0.014926 4.872190 -0.635799 0.052769 6.517323 -0.635123 0.060382 -13.497163 -3.673947 -4.411561 7.147651 3.099464 -4.001531 -17.366758 -47.301420 -20.406331 -29.892965 -111.711507 -82.221025 0.000001 0.000018 -0.000006 95.042492 5.859430 -11.298216 -0.000009 0.000004 -3.000478 -5.000185 -7.998713 0.000165 -12.644877 46.206151 14.361607 -30.399287 117.805559 85.278682 0.000000 -0.000006 0.000001 95.868843 -11.374641 13.459982 0.000001 -0.000006 3.000002 -5.000203 7.998790 -0.000159 -9.465974 -176.691557 0.767981 -179.999991 0.000005 -0.923997 165.791340 -1.452199 -0.651647 0.000000 -0.000002 0.169565 68.839776 6.791194 2.422135 25.456947 -7.355612 -0.000000 -6.841256 171.426560 -1.405440 -0.000004 -0.000005 -0.977221 -9.800150 1.145511 0.333244 -0.000000 -0.000002 -0.046068 67.522096 -6.805743 -2.449513 25.446148 7.355625 0.016066 
48.063801 0.151367 107.115990 1.198063 1.573916 -0.581481 0.434568 -0.314962 0.014795 4.872164 -0.629279 0.053238 6.517295 -0.628600 0.060773 -13.403906 -3.663747 -4.405379 7.152620 3.093467 -4.000771 -17.372646 -47.243343 -20.412782 -29.416597 -111.288486 -82.127854 0.000000 0.000016 -0.000006 95.338902 6.092071 -11.639304 -0.000008 0.000005 -3.000478 -5.000182 -7.998715 0.000170 -12.648163 46.194168 14.365167 -29.930500 117.266029 85.217525 0.000004 -0.000006 -0.000001 96.293168 -11.622102 13.879094 0.000002 -0.000005 3.000000 -5.000200 7.998792 -0.000156 -9.321297 -176.729669 0.763620 -179.999991 0.000005 -0.923997 165.868016 -1.445894 -0.645001 0.000001 -0.000003 0.168188 68.845534 6.790748 2.423797 25.456945 -7.355613 -0.000000 -6.662572 171.415482 -1.435954 -0.000005 -0.000005 -0.977561 -9.590633 1.151039 0.323701 -0.000001 -0.000003 -0.041494 67.496606 -6.804880 -2.453015 25.451708 7.355624 0.007697 
48.052399 0.134276 107.375992 1.165535 1.579863 -0.582494 0.434146 -0.312934 0.014743 4.871310 -0.625223 0.053600 6.516448 -0.624538 0.061086 -13.305982 -3.642930 -4.396849 7.150886 3.083059 -4.000153 -17.373517 -47.173081 -20.412989 -28.897250 -110.873798 -81.987077 0.000002 0.000015 -0.000001 95.634929 6.321261 -11.982395 -0.000007 0.000005 -3.000476 -5.000182 -7.998715 0.000164 -12.656097 46.183171 14.374703 -29.423980 116.733998 85.121130 0.000001 -0.000008 0.000004 96.702003 -11.864390 14.294179 -0.000000 -0.000006 2.999999 -5.000201 7.998792 -0.000160 -9.181179 -176.766867 0.756677 -179.999991 0.000005 -0.923997 165.948489 -1.437670 -0.638777 0.000001 -0.000002 0.166927 68.851961 6.790415 2.424740 25.456947 -7.355613 0.000000 -6.497976 171.406725 -1.460606 -0.000005 -0.000005 -0.978054 -9.408428 1.151503 0.315645 -0.000001 -0.000002 -0.037594 67.476825 -6.804238 -2.455609 25.455546 7.355619 0.002059 
48.092300 0.141026 107.601990 1.136297 1.586219 -0.583460 0.433241 -0.312229 0.014861 4.869510 -0.623810 0.053998 6.514637 -0.623122 0.061467 -13.203598 -3.611768 -4.386200 7.142382 3.069016 -3.999992 -17.369914 -47.090350 -20.407564 -28.333955 -110.465790 -81.797792 0.000000 0.000019 -0.000005 95.931762 6.546797 -12.326559 -0.000009 0.000002 -3.000477 -5.000182 -7.998717 0.000168 -12.668996 46.172909 14.390625 -28.875967 116.211625 84.986480 0.000001 -0.000005 0.000001 97.093557 -12.101518 14.699861 0.000001 -0.000008 2.999999 -5.000201 7.998796 -0.000157 -9.044735 -176.804159 0.746536 -179.999991 0.000005 -0.924994 166.037596 -1.425620 -0.632410 0.000000 -0.000002 0.165738 68.859030 6.790125 2.425050 25.456948 -7.355613 -0.000000 -6.347861 171.401234 -1.478181 -0.000004 -0.000004 -0.978714 -9.253505 1.145728 0.309286 -0.000001 -0.000002 -0.034398 67.463418 -6.803855 -2.457261 25.456957 7.355614 -0.000010 
48.072800 0.132871 107.860992 1.109211 1.594202 -0.583073 0.431982 -0.313246 0.014768 4.866981 -0.625848 0.053648 6.512119 -0.625164 0.061142 -13.092692 -3.565438 -4.372582 7.124720 3.047293 -3.999831 -17.358856 -46.988833 -20.392631 -27.716525 -110.071149 -81.551769 0.000001 0.000018 -0.000001 96.227748 6.769914 -12.672717 -0.000006 0.000004 -3.000482 -5.000177 -7.998718 0.000165 -12.688120 46.164750 14.414600 -28.294277 115.697080 84.828607 -0.000001 -0.000006 0.000002 97.469777 -12.337691 15.102489 0.000001 -0.000006 3.000000 -5.000203 7.998791 -0.000160 -8.913904 -176.842518 0.733719 -179.999991 0.000005 -0.924994 166.122905 -1.411583 -0.627688 0.000001 -0.000002 0.164821 68.868128 6.789923 2.424755 25.456947 -7.355613 -0.000001 -6.215066 171.397095 -1.490604 -0.000005 -0.000005 -0.979562 -9.136578 1.134802 0.304665 -0.000001 -0.000002 -0.032085 67.456772 -6.803705 -2.457943 25.456965 7.355614 -0.000011 
